<svg xmlns="http://www.w3.org/2000/svg" viewBox="0 0 64 64">
  <rect width="64" height="64" rx="12" fill="#F7F5F2"/>
  <circle cx="32" cy="28" r="20" fill="none" stroke="#C5B99A" stroke-width="1.5"/>
  <polygon points="32,10 28,28 32,24 36,28" fill="#8B4513" opacity="0.95"/>
  <polygon points="32,46 28,28 32,32 36,28" fill="#78716C" opacity="0.7"/>
  <polygon points="50,28 32,24 36,28 32,32" fill="#78716C" opacity="0.5"/>
  <polygon points="14,28 32,24 28,28 32,32" fill="#78716C" opacity="0.5"/>
  <circle cx="32" cy="28" r="3.5" fill="#8B4513"/>
  <circle cx="32" cy="28" r="1.8" fill="#F7F5F2"/>
  <path d="M32,48 L29,54 Q32,58 35,54 Z" fill="#8B4513" opacity="0.8"/>
  <line x1="32" y1="8" x2="32" y2="11" stroke="#8B4513" stroke-width="1.5" stroke-linecap="round"/>
  <line x1="32" y1="45" x2="32" y2="48" stroke="#78716C" stroke-width="1" stroke-linecap="round"/>
  <line x1="52" y1="28" x2="49" y2="28" stroke="#78716C" stroke-width="1" stroke-linecap="round"/>
  <line x1="12" y1="28" x2="15" y2="28" stroke="#78716C" stroke-width="1" stroke-linecap="round"/>
</svg>
